# xmcd
#
# Track frame offsets:
#	150
#	43595
#	91322
#	114455
#	144400
#	187955
#
# Disc length: 2808 seconds
#
# Revision: 0
# Processed by: cddbd v1.5.2PL0 Copyright (c) Steve Scherf et al.
# Submitted via: audiograbber 1.83.01
#
DISCID=470af606
DTITLE=Lacrimosa - Einsamkeit
DYEAR=1992
DGENRE=Gothic
TTITLE0=Tränen der Sehnsucht (Part I and II)
TTITLE1=Reissende Blicke
TTITLE2=Einsamkeit
TTITLE3=Diener eines Geistes
TTITLE4=Loblied auf die Zweisamkeit
TTITLE5=Bresso
EXTD=
EXTT0=
EXTT1=
EXTT2=
EXTT3=
EXTT4=
EXTT5=
PLAYORDER=
